<svg xmlns="http://www.w3.org/2000/svg" width="1600" height="1000" viewBox="0 0 1600 1000">
  <defs>
    <radialGradient id="g8" cx="58%" cy="30%" r="75%">
      <stop offset="0%" stop-color="#7C74F0" stop-opacity="0.35"/>
      <stop offset="45%" stop-color="#8FA3F5" stop-opacity="0.18"/>
      <stop offset="100%" stop-color="#B9C4EC" stop-opacity="0"/>
    </radialGradient>
    <linearGradient id="base8" x1="0" y1="0" x2="1" y2="1">
      <stop offset="0%" stop-color="#DDE3F7"/>
      <stop offset="100%" stop-color="#B9C4EC"/>
    </linearGradient>
  </defs>
  <rect width="1600" height="1000" fill="url(#base8)"/>
  <rect width="1600" height="1000" fill="url(#g8)"/>
  <line x1="0" y1="166.7" x2="1131.8" y2="86.7" stroke="#463ED2" stroke-opacity="0.09" stroke-width="1"/><line x1="0" y1="333.3" x2="1512.4" y2="253.3" stroke="#463ED2" stroke-opacity="0.12" stroke-width="1"/><line x1="0" y1="500.0" x2="928.4" y2="420.0" stroke="#463ED2" stroke-opacity="0.12" stroke-width="1"/><line x1="0" y1="666.7" x2="1094.4" y2="586.7" stroke="#463ED2" stroke-opacity="0.11" stroke-width="1"/><line x1="0" y1="833.3" x2="1425.6" y2="753.3" stroke="#463ED2" stroke-opacity="0.09" stroke-width="1"/>
  <circle cx="906.5" cy="781.2" r="1.8" fill="#322AA8" fill-opacity="0.27"/><circle cx="1487.8" cy="729.9" r="1.1" fill="#322AA8" fill-opacity="0.41"/><circle cx="1371.1" cy="452.2" r="2.1" fill="#322AA8" fill-opacity="0.25"/><circle cx="1366.3" cy="861.8" r="1.2" fill="#322AA8" fill-opacity="0.40"/><circle cx="90.8" cy="57.4" r="1.6" fill="#322AA8" fill-opacity="0.37"/><circle cx="724.7" cy="211.9" r="2.5" fill="#322AA8" fill-opacity="0.41"/><circle cx="1233.6" cy="127.6" r="1.5" fill="#322AA8" fill-opacity="0.32"/><circle cx="56.8" cy="459.0" r="2.1" fill="#322AA8" fill-opacity="0.47"/>
  <circle cx="935.3" cy="296.9" r="404.8" fill="none" stroke="#463ED2" stroke-opacity="0.25" stroke-width="1"/>
  <rect x="0.5" y="0.5" width="1599" height="999" fill="none" stroke="#463ED2" stroke-opacity="0.24" stroke-width="1"/>
  <text x="800" y="500" text-anchor="middle" dominant-baseline="middle" font-family="ui-monospace, monospace" font-size="29" letter-spacing="2" fill="#322AA8" fill-opacity="0.55">PLACEHOLDER — DESIGN GALLERY</text>
</svg>